<?xml version="1.0" encoding="UTF-8" standalone="no"?>
<!-- Created with Inkscape (http://www.inkscape.org/) -->

<svg
   xmlns:dc="http://purl.org/dc/elements/1.1/"
   xmlns:cc="http://creativecommons.org/ns#"
   xmlns:rdf="http://www.w3.org/1999/02/22-rdf-syntax-ns#"
   xmlns:svg="http://www.w3.org/2000/svg"
   xmlns="http://www.w3.org/2000/svg"
   xmlns:sodipodi="http://sodipodi.sourceforge.net/DTD/sodipodi-0.dtd"
   xmlns:inkscape="http://www.inkscape.org/namespaces/inkscape"
   id="Layer_1"
   xml:space="preserve"
   version="1.0"
   viewBox="0 0 954.57391 624.66423"
   inkscape:version="0.48.5 r10040"
   width="100%"
   height="100%"
   sodipodi:docname="book_perspective.svg"><defs
     id="defs3006" /><sodipodi:namedview
     pagecolor="#ffffff"
     bordercolor="#666666"
     borderopacity="1"
     objecttolerance="10"
     gridtolerance="10"
     guidetolerance="10"
     inkscape:pageopacity="0"
     inkscape:pageshadow="2"
     inkscape:window-width="1280"
     inkscape:window-height="1000"
     id="namedview3004"
     showgrid="false"
     inkscape:zoom="10.504694"
     inkscape:cx="35.056018"
     inkscape:cy="227.12592"
     inkscape:window-x="1680"
     inkscape:window-y="24"
     inkscape:window-maximized="1"
     inkscape:current-layer="Layer_1"
     fit-margin-top="0"
     fit-margin-left="0"
     fit-margin-right="0"
     fit-margin-bottom="0" /><path
     style="color:#000000;fill:#08e7f3;fill-opacity:0.20168068;fill-rule:nonzero;stroke:#000000;stroke-width:1.39999998px;stroke-linecap:butt;stroke-linejoin:miter;stroke-miterlimit:4;stroke-opacity:1;stroke-dasharray:none;stroke-dashoffset:0;marker:none;visibility:visible;display:inline;overflow:visible;enable-background:accumulate"
     d="M 454.54253,22.595708 834.72869,162.60761 835.8057,355.39321 455.61955,163.68462 z"
     id="path_xz2"
     inkscape:connector-curvature="0"
     sodipodi:nodetypes="ccccc"
     inkscape:label="#path3045-5" /><path
     style="color:#000000;fill:#08e7f3;fill-opacity:0.20168068;fill-rule:nonzero;stroke:#000000;stroke-width:1.39999998px;stroke-linecap:butt;stroke-linejoin:miter;stroke-miterlimit:4;stroke-opacity:1;stroke-dasharray:none;stroke-dashoffset:0;marker:none;visibility:visible;display:inline;overflow:visible;enable-background:accumulate"
     d="m 57.71258,466.60512 0,-188.71564 508.57264,-271.380543 0,118.915363 z"
     id="path_yz2"
     inkscape:connector-curvature="0"
     sodipodi:nodetypes="ccccc"
     inkscape:label="#path3008-7" /><path
     style="fill:#08e7f3;fill-opacity:0.20168068;stroke:#000000;stroke-width:1.39999998px;stroke-linecap:butt;stroke-linejoin:miter;stroke-opacity:1"
     d="M 538.0598,121.17015 0.69999999,404.77669 429.30841,615.88233 953.87391,278.96628 z"
     id="path_xy3"
     inkscape:connector-curvature="0"
     sodipodi:nodetypes="ccccc"
     inkscape:label="#path3010" /><path
     style="fill:#08e7f3;fill-opacity:0.20168068;stroke:#000000;stroke-width:1.39999998px;stroke-linecap:butt;stroke-linejoin:miter;stroke-opacity:1"
     d="M 538.0598,112.33752 0.69999999,395.94406 429.30841,607.0497 953.87391,270.13365 z"
     id="path_xy2"
     inkscape:connector-curvature="0"
     sodipodi:nodetypes="ccccc"
     inkscape:label="#path3010" /><path
     id="path3"
     style="fill:#ca521f;stroke:#ce6532;stroke-width:2"
     d="m 819.35147,297.82855 c -0.24,-0.67 -0.58,-1.33 -1,-1.93 -0.42,-0.61 -0.91,-1.16 -1.46,-1.63 -0.54,-0.46 -1.14,-0.84 -1.76,-1.09 l -285.35,-116.35 c -0.42,-0.174 -0.84,-0.396 -1.27,-0.672 -0.43,-0.276 -0.87,-0.607 -1.32,-1 -0.45,-0.393 -0.91,-0.846 -1.39,-1.367 -0.47,-0.521 -0.96,-1.11 -1.47,-1.772 -0.75,-0.985 -1.52,-2.131 -2.29,-3.42 -0.77,-1.289 -1.54,-2.721 -2.3,-4.277 -0.76,-1.556 -1.51,-3.236 -2.23,-5.022 -0.73,-1.787 -1.42,-3.678 -2.07,-5.657 -0.66,-1.982 -1.28,-4.05 -1.86,-6.186 -0.58,-2.137 -1.11,-4.344 -1.59,-6.602 -0.48,-2.26 -0.9,-4.572 -1.27,-6.919 -0.36,-2.35 -0.66,-4.735 -0.9,-7.138 -0.31,-3.208 -0.49,-6.292 -0.54,-9.219 -0.04,-2.933 0.03,-5.71 0.23,-8.301 0.19,-2.595 0.51,-5.003 0.92,-7.193 0.42,-2.193003 0.94,-4.168003 1.55,-5.892003 0.3,-0.862 0.62,-1.66 0.97,-2.392 0.34,-0.732 0.7,-1.398 1.08,-1.996 0.38,-0.599 0.77,-1.129 1.17,-1.589 0.4,-0.46 0.81,-0.851 1.22,-1.17 0.08,-0.057 0.15,-0.112 0.23,-0.165 0.08,-0.053 0.15,-0.104 0.23,-0.151 0.07,-0.049 0.14,-0.095 0.22,-0.139 0.08,-0.044 0.15,-0.086 0.22,-0.126 -123.45,65.965003 -246.9,131.920003 -370.35,197.880003 -0.063,0.04 -0.126,0.07 -0.19,0.11 -0.064,0.04 -0.127,0.08 -0.19,0.13 -0.063,0.04 -0.126,0.08 -0.189,0.13 -0.062,0.05 -0.125,0.1 -0.188,0.15 -0.344,0.29 -0.675,0.66 -0.988,1.11 -0.313,0.44 -0.609,0.96 -0.884,1.55 -0.274,0.59 -0.528,1.26 -0.757,2 -0.229,0.73 -0.433,1.54 -0.608,2.42 -0.355,1.76 -0.597,3.79 -0.716,6.06 -0.12,2.27 -0.118,4.78 0.012,7.5 0.13,2.72 0.389,5.64 0.783,8.74 0.394,3.1 0.924,6.37 1.597,9.79 0.501,2.57 1.064,5.11 1.678,7.63 0.614,2.52 1.279,5 1.988,7.44 0.708,2.43 1.458,4.82 2.242,7.13 0.783,2.32 1.601,4.57 2.442,6.73 0.836,2.16 1.7,4.23 2.575,6.19 0.875,1.96 1.761,3.81 2.644,5.54 0.883,1.72 1.763,3.31 2.623,4.76 0.861,1.44 1.703,2.73 2.511,3.86 0.544,0.75 1.063,1.43 1.562,2.03 0.499,0.6 0.977,1.13 1.437,1.59 0.46,0.47 0.904,0.86 1.333,1.2 0.429,0.34 0.843,0.62 1.247,0.85 l 279.72,156.76 c 0.62,0.35 1.22,0.82 1.79,1.38 0.57,0.57 1.1,1.22 1.56,1.91 0.46,0.69 0.86,1.43 1.16,2.18 0.31,0.74 0.52,1.49 0.6,2.2 0.05,0.36 0.06,0.69 0.04,1 -0.02,0.3 -0.06,0.57 -0.14,0.82 -0.08,0.25 -0.18,0.46 -0.31,0.64 -0.13,0.19 -0.28,0.34 -0.45,0.46 121.86,-81.86 243.73,-163.72 365.6,-245.58 0.2,-0.13 0.38,-0.3 0.54,-0.49 0.15,-0.19 0.29,-0.41 0.4,-0.65 0.1,-0.25 0.19,-0.52 0.24,-0.81 0.05,-0.29 0.08,-0.61 0.07,-0.94 -0.01,-0.67 -0.16,-1.36 -0.4,-2.04 z"
     inkscape:connector-curvature="0" /><g
     id="g5"
     transform="translate(133.82147,77.028547)"><g
       id="g7"><g
         id="g9"><g
           id="g11"><path
             id="path13"
             style="fill:#3f973e"
             d="m 297.16,394.96 c 0.51,4.06 1.19,8.1 2,12.1 0.82,4 1.77,7.94 2.85,11.81 1.08,3.85 2.28,7.63 3.59,11.28 1.3,3.65 2.72,7.18 4.23,10.56 0.45,0.99 0.9,1.96 1.36,2.92 0.45,0.96 0.92,1.91 1.4,2.84 0.48,0.93 0.96,1.85 1.45,2.75 0.5,0.91 1,1.8 1.51,2.67 L 42.07,299.76 c -0.411,-0.23 -0.828,-0.51 -1.26,-0.85 -0.432,-0.34 -0.877,-0.73 -1.34,-1.2 -0.463,-0.47 -0.943,-0.99 -1.444,-1.6 -0.501,-0.6 -1.022,-1.28 -1.568,-2.04 -0.812,-1.12 -1.656,-2.42 -2.52,-3.87 -0.864,-1.44 -1.745,-3.04 -2.63,-4.77 -0.885,-1.73 -1.772,-3.59 -2.648,-5.56 -0.876,-1.97 -1.739,-4.04 -2.576,-6.21 -0.841,-2.17 -1.657,-4.42 -2.439,-6.75 -0.783,-2.32 -1.531,-4.72 -2.236,-7.16 -0.706,-2.44 -1.368,-4.94 -1.979,-7.46 -0.61,-2.53 -1.169,-5.09 -1.665,-7.66 -0.667,-3.43 -1.189,-6.72 -1.575,-9.83 -0.387,-3.12 -0.637,-6.05 -0.758,-8.78 -0.122,-2.73 -0.114,-5.26 0.016,-7.54 0.129,-2.28 0.38,-4.32 0.746,-6.09 0.18,-0.88 0.389,-1.69 0.623,-2.44 0.234,-0.74 0.493,-1.41 0.772,-2 0.28,-0.6 0.581,-1.12 0.898,-1.57 0.318,-0.44 0.653,-0.82 1.001,-1.11 0.354,-0.3 0.714,-0.52 1.08,-0.67 0.366,-0.16 0.738,-0.24 1.117,-0.26 0.38,-0.02 0.767,0.02 1.161,0.12 0.395,0.1 0.798,0.26 1.211,0.47 l 278.84,144.79 c -0.68,0.8 -1.3,1.71 -1.86,2.72 -0.57,1 -1.09,2.1 -1.56,3.28 -0.46,1.18 -0.88,2.45 -1.26,3.8 -0.37,1.35 -0.69,2.78 -0.98,4.29 -0.38,2.08 -0.67,4.31 -0.87,6.67 -0.2,2.36 -0.31,4.85 -0.32,7.46 -0.02,2.61 0.07,5.34 0.25,8.18 0.19,2.84 0.47,5.79 0.86,8.84 z"
             inkscape:connector-curvature="0" /></g></g></g></g><g
     id="g15"
     transform="translate(133.82147,77.028547)"><g
       id="g17"><g
         id="g19"><g
           id="g21"><path
             id="path23"
             style="fill:#ffffff"
             d="m 297.16,394.96 c 0.51,4.06 1.19,8.1 2,12.1 0.82,4 1.77,7.94 2.85,11.81 1.08,3.85 2.28,7.63 3.59,11.28 1.3,3.65 2.72,7.18 4.23,10.56 0.45,0.99 0.9,1.96 1.36,2.92 0.45,0.96 0.92,1.91 1.4,2.84 0.48,0.93 0.96,1.85 1.45,2.75 0.5,0.91 1,1.8 1.51,2.67 L 42.07,299.76 c -0.411,-0.23 -0.828,-0.51 -1.26,-0.85 -0.432,-0.34 -0.877,-0.73 -1.34,-1.2 -0.463,-0.47 -0.943,-0.99 -1.444,-1.6 -0.501,-0.6 -1.022,-1.28 -1.568,-2.04 -0.812,-1.12 -1.656,-2.42 -2.52,-3.87 -0.864,-1.44 -1.745,-3.04 -2.63,-4.77 -0.885,-1.73 -1.772,-3.59 -2.648,-5.56 -0.876,-1.97 -1.739,-4.04 -2.576,-6.21 -0.841,-2.17 -1.657,-4.42 -2.439,-6.75 -0.783,-2.32 -1.531,-4.72 -2.236,-7.16 -0.706,-2.44 -1.368,-4.94 -1.979,-7.46 -0.61,-2.53 -1.169,-5.09 -1.665,-7.66 -0.667,-3.43 -1.189,-6.72 -1.575,-9.83 -0.387,-3.12 -0.637,-6.05 -0.758,-8.78 -0.122,-2.73 -0.114,-5.26 0.016,-7.54 0.129,-2.28 0.38,-4.32 0.746,-6.09 0.18,-0.88 0.389,-1.69 0.623,-2.44 0.234,-0.74 0.493,-1.41 0.772,-2 0.28,-0.6 0.581,-1.12 0.898,-1.57 0.318,-0.44 0.653,-0.82 1.001,-1.11 0.354,-0.3 0.714,-0.52 1.08,-0.67 0.366,-0.16 0.738,-0.24 1.117,-0.26 0.38,-0.02 0.767,0.02 1.161,0.12 0.395,0.1 0.798,0.26 1.211,0.47 l 278.84,144.79 c -0.68,0.8 -1.3,1.71 -1.86,2.72 -0.57,1 -1.09,2.1 -1.56,3.28 -0.46,1.18 -0.88,2.45 -1.26,3.8 -0.37,1.35 -0.69,2.78 -0.98,4.29 -0.38,2.08 -0.67,4.31 -0.87,6.67 -0.2,2.36 -0.31,4.85 -0.32,7.46 -0.02,2.61 0.07,5.34 0.25,8.18 0.19,2.84 0.47,5.79 0.86,8.84 z"
             inkscape:connector-curvature="0" /></g><path
           id="path25"
           style="fill:#3f973e"
           d="m 378.6,15.184 c -0.36,-0.131 -0.7,-0.229 -1.05,-0.289 -0.35,-0.06 -0.69,-0.084 -1.03,-0.068 -0.35,0.016 -0.69,0.071 -1.04,0.169 -0.34,0.098 -0.68,0.237 -1.03,0.422 -118.07,63.111 -236.13,126.22 -354.2,189.33 0.301,-0.16 0.603,-0.27 0.909,-0.34 0.307,-0.07 0.618,-0.09 0.934,-0.07 0.316,0.02 0.638,0.08 0.965,0.18 0.327,0.1 0.66,0.23 0.999,0.41 l 278.84,144.79 360.36,-226.93 -284.66,-107.61 z"
           inkscape:connector-curvature="0" /><path
           id="path27"
           style="fill:#e2e3e4"
           d="m 664.59,216.43 c -0.43,-0.8 -0.85,-1.62 -1.26,-2.46 -0.41,-0.84 -0.81,-1.69 -1.19,-2.55 -0.39,-0.86 -0.77,-1.74 -1.14,-2.64 -1.25,-3.05 -2.39,-6.26 -3.39,-9.6 -1.01,-3.34 -1.89,-6.8 -2.63,-10.36 -0.74,-3.57 -1.34,-7.23 -1.78,-10.95 -0.44,-3.73 -0.73,-7.51 -0.85,-11.33 -0.09,-2.86 -0.08,-5.64 0.03,-8.33 0.1,-2.69 0.31,-5.28 0.6,-7.77 0.29,-2.5 0.67,-4.88 1.13,-7.15 0.47,-2.27 1.02,-4.43 1.65,-6.45 0.45,-1.47 0.95,-2.86 1.49,-4.19 0.54,-1.33 1.12,-2.59 1.74,-3.77 0.63,-1.18 1.29,-2.28 2,-3.3 0.71,-1.01 1.47,-1.95 2.27,-2.79 L 302.89,349.72 c -0.67,0.8 -1.29,1.71 -1.85,2.71 -0.57,1.01 -1.09,2.1 -1.56,3.29 -0.47,1.18 -0.88,2.45 -1.26,3.8 -0.37,1.35 -0.7,2.78 -0.98,4.29 -0.38,2.08 -0.67,4.31 -0.87,6.67 -0.21,2.35 -0.31,4.85 -0.33,7.46 -0.01,2.61 0.08,5.34 0.26,8.18 0.18,2.84 0.47,5.79 0.86,8.84 0.51,4.06 1.19,8.1 2,12.1 0.82,4 1.77,7.94 2.85,11.81 1.08,3.85 2.28,7.63 3.59,11.28 1.3,3.65 2.72,7.18 4.23,10.56 0.45,0.99 0.9,1.96 1.35,2.92 0.46,0.96 0.93,1.91 1.41,2.84 0.47,0.93 0.96,1.85 1.45,2.75 0.5,0.91 1,1.8 1.51,2.67 L 665.91,218.81 c -0.45,-0.78 -0.89,-1.57 -1.32,-2.38 z"
           inkscape:connector-curvature="0" /></g></g></g><path
     id="path29"
     style="fill:#ca521f;stroke:#ce6532;stroke-width:2"
     d="m 816.87147,192.15855 c -0.25,-0.7 -0.6,-1.37 -1.03,-1.99 -0.43,-0.62 -0.93,-1.18 -1.49,-1.65 -0.56,-0.46 -1.17,-0.83 -1.81,-1.07 l -292.02,-108.680003 c -0.77,-0.289 -1.51,-0.487 -2.24,-0.606 -0.72,-0.118 -1.42,-0.157 -2.1,-0.122 -0.68,0.035 -1.33,0.144 -1.95,0.319 -0.63,0.175 -1.23,0.417 -1.8,0.72 -123.69,65.605003 -247.39,131.210003 -371.08,196.810003 0.489,-0.26 1.012,-0.45 1.566,-0.57 0.554,-0.12 1.142,-0.16 1.761,-0.12 0.619,0.03 1.27,0.15 1.95,0.35 0.681,0.2 1.391,0.49 2.13,0.88 l 285.76,148.46 c 0.63,0.33 1.25,0.8 1.84,1.36 0.58,0.56 1.12,1.22 1.6,1.93 0.48,0.71 0.89,1.48 1.2,2.25 0.31,0.78 0.53,1.57 0.62,2.32 0.05,0.41 0.07,0.78 0.04,1.13 -0.02,0.34 -0.08,0.65 -0.16,0.93 -0.09,0.27 -0.21,0.52 -0.36,0.72 -0.15,0.2 -0.33,0.37 -0.53,0.5 125.69,-79.51 251.37,-159.01 377.07,-238.52 0.23,-0.14 0.44,-0.32 0.62,-0.53 0.18,-0.21 0.33,-0.46 0.46,-0.73 0.12,-0.27 0.22,-0.57 0.28,-0.9 0.06,-0.33 0.09,-0.68 0.08,-1.06 -0.02,-0.71 -0.16,-1.43 -0.41,-2.13 z"
     inkscape:connector-curvature="0" /><g
     id="g31"
     transform="translate(133.82147,77.028547)"><path
       id="path33"
       style="fill:#d5804b;stroke:#ce6532;stroke-width:2"
       d="m 14.937,199.4 285.76,148.46 c 0.63,0.33 1.25,0.8 1.84,1.36 0.58,0.56 1.12,1.22 1.6,1.93 0.48,0.71 0.89,1.48 1.2,2.25 0.31,0.78 0.53,1.57 0.62,2.32 0.1,0.76 0.06,1.41 -0.09,1.95 -0.15,0.53 -0.41,0.94 -0.77,1.22 -0.35,0.28 -0.79,0.42 -1.31,0.41 -0.51,-0.01 -1.09,-0.17 -1.72,-0.5 L 16.917,209.52 c -0.411,-0.22 -0.812,-0.38 -1.203,-0.48 -0.391,-0.1 -0.775,-0.14 -1.151,-0.12 -0.375,0.02 -0.744,0.1 -1.105,0.26 -0.362,0.15 -0.717,0.37 -1.067,0.66 -0.344,0.29 -0.675,0.66 -0.988,1.11 -0.313,0.44 -0.609,0.96 -0.884,1.55 -0.274,0.59 -0.528,1.26 -0.757,2 -0.229,0.73 -0.433,1.54 -0.608,2.42 -0.355,1.76 -0.597,3.79 -0.716,6.06 -0.12,2.27 -0.118,4.78 0.012,7.5 0.13,2.72 0.389,5.64 0.783,8.74 0.394,3.1 0.924,6.37 1.597,9.79 0.501,2.57 1.064,5.11 1.678,7.63 0.614,2.52 1.279,5 1.988,7.44 0.708,2.43 1.458,4.82 2.242,7.13 0.783,2.32 1.601,4.57 2.442,6.73 0.836,2.16 1.7,4.23 2.575,6.19 0.875,1.96 1.761,3.81 2.644,5.54 0.883,1.72 1.763,3.31 2.623,4.76 0.861,1.44 1.703,2.73 2.511,3.86 0.544,0.75 1.063,1.43 1.562,2.03 0.499,0.6 0.977,1.13 1.437,1.59 0.46,0.47 0.904,0.86 1.333,1.2 0.429,0.34 0.843,0.62 1.247,0.85 l 279.72,156.76 c 0.61,0.35 1.21,0.82 1.78,1.38 0.57,0.57 1.1,1.22 1.56,1.91 0.46,0.69 0.86,1.43 1.16,2.18 0.31,0.74 0.52,1.49 0.6,2.2 0.09,0.71 0.05,1.32 -0.1,1.81 -0.15,0.49 -0.41,0.86 -0.75,1.1 -0.35,0.24 -0.78,0.34 -1.28,0.3 -0.51,-0.04 -1.07,-0.23 -1.69,-0.58 L 36.952,313.54 c -0.9,-0.51 -1.803,-1.13 -2.704,-1.85 -0.9,-0.72 -1.799,-1.53 -2.689,-2.43 -0.889,-0.9 -1.769,-1.88 -2.633,-2.92 -0.863,-1.04 -1.71,-2.15 -2.533,-3.3 -0.831,-1.16 -1.645,-2.38 -2.443,-3.64 -0.798,-1.26 -1.581,-2.57 -2.348,-3.93 -0.768,-1.35 -1.52,-2.75 -2.257,-4.19 -0.737,-1.44 -1.46,-2.92 -2.168,-4.43 -1.412,-3.03 -2.77,-6.22 -4.058,-9.52 C 11.83,274.02 10.61,270.6 9.474,267.09 8.337,263.57 7.285,259.97 6.331,256.31 5.376,252.65 4.519,248.93 3.778,245.19 3.224,242.38 2.755,239.66 2.368,237.04 1.981,234.41 1.677,231.88 1.454,229.45 1.231,227.02 1.09,224.7 1.028,222.49 c -0.062,-2.21 -0.043,-4.3 0.054,-6.26 0.103,-1.95 0.28,-3.79 0.538,-5.48 0.258,-1.7 0.597,-3.25 1.021,-4.65 0.425,-1.4 0.935,-2.64 1.537,-3.71 0.603,-1.06 1.297,-1.95 2.088,-2.65 0.523,-0.46 1.098,-0.83 1.724,-1.1 0.626,-0.27 1.303,-0.43 2.028,-0.48 0.726,-0.04 1.499,0.03 2.318,0.23 0.819,0.21 1.684,0.53 2.593,1.01 z"
       inkscape:connector-curvature="0" /></g><metadata
     id="metadata3002"><rdf:RDF><cc:Work><dc:format>image/svg+xml</dc:format><dc:type
           rdf:resource="http://purl.org/dc/dcmitype/StillImage" /><cc:license
           rdf:resource="http://creativecommons.org/licenses/publicdomain/" /><dc:publisher><cc:Agent
             rdf:about="http://openclipart.org/"><dc:title>Openclipart</dc:title></cc:Agent></dc:publisher><dc:title>Book</dc:title><dc:date>2010-06-18T16:19:07</dc:date><dc:description>A closed book with a red cover.</dc:description><dc:source>https://openclipart.org/detail/67633/book-by-gramzon</dc:source><dc:creator><cc:Agent><dc:title>gramzon</dc:title></cc:Agent></dc:creator><dc:subject><rdf:Bag><rdf:li>author</rdf:li><rdf:li>book</rdf:li><rdf:li>closed</rdf:li><rdf:li>cover</rdf:li><rdf:li>literature</rdf:li><rdf:li>novel</rdf:li><rdf:li>read</rdf:li><rdf:li>reading</rdf:li><rdf:li>red</rdf:li><rdf:li>write</rdf:li><rdf:li>writer</rdf:li><rdf:li>writing</rdf:li></rdf:Bag></dc:subject></cc:Work><cc:License
         rdf:about="http://creativecommons.org/licenses/publicdomain/"><cc:permits
           rdf:resource="http://creativecommons.org/ns#Reproduction" /><cc:permits
           rdf:resource="http://creativecommons.org/ns#Distribution" /><cc:permits
           rdf:resource="http://creativecommons.org/ns#DerivativeWorks" /></cc:License></rdf:RDF></metadata><path
     style="fill:#08e7f3;fill-opacity:0.20168068;stroke:#000000;stroke-width:1.39999998px;stroke-linecap:butt;stroke-linejoin:miter;stroke-opacity:1"
     d="M 538.05979,0.69999999 0.70000999,284.30654 429.3084,495.41217 953.8739,158.49613 z"
     id="path_xy1"
     inkscape:connector-curvature="0"
     sodipodi:nodetypes="ccccc"
     inkscape:label="#path3010" /><path
     style="color:#000000;fill:#08e7f3;fill-opacity:0.20168068;fill-rule:nonzero;stroke:#000000;stroke-width:1.39999998px;stroke-linecap:butt;stroke-linejoin:miter;stroke-miterlimit:4;stroke-opacity:1;stroke-dasharray:none;stroke-dashoffset:0;marker:none;visibility:visible;display:inline;overflow:visible;enable-background:accumulate"
     d="m 379.5021,623.96423 0,-188.71563 508.57263,-320.92321 0,168.45803 z"
     id="path_yz1"
     inkscape:connector-curvature="0"
     inkscape:label="#path3008" /><path
     style="color:#000000;fill:#08e7f3;fill-opacity:0.20168068;fill-rule:nonzero;stroke:#000000;stroke-width:1.39999998px;stroke-linecap:butt;stroke-linejoin:miter;stroke-miterlimit:4;stroke-opacity:1;stroke-dasharray:none;stroke-dashoffset:0;marker:none;visibility:visible;display:inline;overflow:visible;enable-background:accumulate"
     d="m 88.58684,216.83805 379.10913,183.09248 1.07701,192.7856 L 88.58684,401.00754 z"
     id="path_xz1"
     inkscape:connector-curvature="0"
     sodipodi:nodetypes="ccccc"
     inkscape:label="#path3045" /></svg>
